<svg xmlns="http://www.w3.org/2000/svg" viewBox="0 0 369.95 277.93"><defs><style>.cls-1{isolation:isolate;}.cls-2{fill:#007435;}.cls-2,.cls-3,.cls-4{mix-blend-mode:multiply;}.cls-3{fill:#f0c700;}.cls-4{fill:#f8e12b;}</style></defs><g class="cls-1"><g id="Layer_2" data-name="Layer 2"><g id="Layer_7" data-name="Layer 7"><path class="cls-2" d="M113.41,113.52l-.61-.48a129.26,129.26,0,0,0-18.28-12.38c-10-5.45-21.87-6.87-33.2-5.61s-22.23,5.08-32.7,9.59A246.36,246.36,0,0,0,0,119.28a328,328,0,0,0,24.36,25.8c4.39,4.17,9,8.25,14.26,11.16,6.42,3.52,13.71,5.18,21,6.07,14.23,1.75,29,.67,42.28-4.69a96,96,0,0,0,16.65-9c7-4.59,12.18-10.5,17.36-17Z"/><path class="cls-2" d="M30.45,153.65l16-17.42c3.85-4.18,7.6-8.53,11.64-12.55q-5.64-.66-11.29-1.21Q41.71,127.69,36.71,133c-1.73,1.87-3.46,3.75-5.16,5.64s-5,4.47-5.45,7.11c-.12.68-4.48-2.51-4.21-4,.41-2.33,2.36-3.93,3.89-5.64,2-2.21,4-4.42,6-6.6q3.63-3.93,7.34-7.77-18.88-1.58-37.86-1.9c-.57,0,2.07-4.53,3.64-4.51q15.33.24,30.63,1.31Q27.66,111,19.3,105.93c-.64-.39,2.87-5.12,4.07-4.4a228.29,228.29,0,0,1,23.22,16.06q5.86.54,11.71,1.18A130.33,130.33,0,0,0,39.42,100.6c-.75-.59,3.11-5.16,4.07-4.4a130.14,130.14,0,0,1,22.07,22.06c.21.28,0,.77-.3,1.33q8.61,1.06,17.19,2.41c-7.9-8.87-14-19.41-23.7-26.49-.73-.53,3-5.15,4.07-4.4,11.66,8.48,18,21.92,28.63,31.5.16.14.11.46-.07.85q5.46.93,10.9,2l-8.08-12c-3.56-5.31-6.83-12-11.83-16.1-.77-.62,3.14-5.16,4.07-4.4,5,4.09,8.27,10.79,11.83,16.1l11.49,17.12a.84.84,0,0,1,0,.79q9.75,2,19.43,4.36c.89.22-2.31,4.84-3.64,4.52q-8.79-2.16-17.67-4Q94.63,148.41,81.37,165c-.49.61-4.76-3.48-3.91-4.55q12-15,23.93-30-6.47-1.28-13-2.4c-5.1,4.86-9.6,10.36-14.26,15.62L58.48,161.43c-.55.63-4.71-3.61-3.83-4.61l15.68-17.73c3.59-4.06,7.1-8.27,10.86-12.22q-7.66-1.22-15.36-2.23c-5.63,5-10.54,10.76-15.61,16.28q-8,8.7-16,17.41C33.63,158.94,29.55,154.62,30.45,153.65Z"/><path class="cls-3" d="M320.54,141.32c2.81-2,2.75-5.89,3.18-9,1.24-9.19,2.33-18.49,1.9-27.78-.31-6.45-.74-14.12-4-19.88-4-6.94-10.44-2.93-15.5.58-13,9-26.55,17-40.18,24.93-6.08,3.54-31.46,18.05-12.15,22.1l36.09,7.57C298.65,141.68,312.24,147.35,320.54,141.32Z"/><path class="cls-3" d="M274.75,212.28c8.54-2.45,15.86-7.6,21.93-14,6.78-7.15,25.6-27.25,10.24-34.86l-30.73-15.2L259.64,140c-4.28-2.11-12.07-8.26-15.73-1.76-5,9,1.39,30.64,3,40.33s3,20.67,6.67,29.89C257,217,267.66,214.32,274.75,212.28Z"/><path class="cls-3" d="M213.18,234.75a34.24,34.24,0,0,0,6.25.28c11-.54,14.11-9.36,15.3-19.24a67.79,67.79,0,0,0,.17-11.22c-.84-18.23-1.72-36.56-1.31-54.86,0-1.18,0-2.53-.9-3.32-1.37-1.21-3.49-.19-5,.85-16,11.12-29.41,25.85-43,40-5.51,5.76-14.36,11.8-14.19,20.7.18,9.24,9.5,12.46,16.33,16.25C195,228.72,203.83,233.49,213.18,234.75Z"/><path class="cls-3" d="M169.14,177.78c9.59-7,19.37-13.64,29-20.62,7.65-5.54,18.76-11,24.84-18.21,8.06-9.61-23.59-18-29.9-20.26-10.66-3.75-20.66-8.77-31.71-11.51-5.51-1.37-11.73-3.45-17.42-3.68-3.79-.16-4.74,1.08-5.71,4.6-2.8,10.17-3.22,21.79-2.77,32.27a81.89,81.89,0,0,0,10.27,36.51c4.07,7.3,9.83,11.13,17.15,5.55C165,180.85,167.06,179.31,169.14,177.78Z"/><path class="cls-3" d="M225.91,119.7c8.74-5.29-4.57-29.64-6.92-37.1-2.63-8.36-14.46-53.57-27.92-41.54L162.43,66.64c-5.52,4.94-11.24,10.16-13.86,17.09-3.44,9.12,5.6,9.89,10,14.28l42.09,17.25c6.28,2.57,12.86,4.84,19.62,5.41A9.2,9.2,0,0,0,225.91,119.7Z"/><path class="cls-3" d="M242.76,117.12c7.11-2.93,20.29-18.14,24.39-21.7Q281.63,82.87,295.82,70c5.15-4.69,7.32-12,3.78-18.62-3.68-6.88-14.07-11.34-21.06-13.79-9.2-3.22-19-4.42-28.68-5-4.41-.27-9.27-.89-13.7-.51-15.09,1.29-10.38,30.26-9.22,39.39.94,7.32,3.85,45,13.4,46.16A5,5,0,0,0,242.76,117.12Z"/><path class="cls-4" d="M240,154.14c12.79-1.79,16.65-13.89,13.6-24.8-1.25-10.15-7.86-19-19.19-19.93-13.5-1.08-20.57,11.19-19.47,23.18C216.13,145.63,226.2,156.07,240,154.14Zm-6.25-10.22c-6.39-.71-18.41-6.86-15.34-15,2.29-6.1,9.66-9.42,15.79-9.2a20,20,0,0,1,10.17,3.24c1.64,1.07,5.7,4.22,6.59,6.7A15.43,15.43,0,0,0,251,132a14.8,14.8,0,0,0,.34,4.68,34,34,0,0,1-3.06,3.4,15.68,15.68,0,0,1-5.61,3.06A21.57,21.57,0,0,1,233.75,143.92Z"/><path class="cls-4" d="M341.23,190.24c5.81-15.18,7.91-31.55,8.65-47.7s.45-32.67-2.24-48.73C344,71.74,334.8,49.53,318.18,34.66a3,3,0,0,0-1-2c-3-2-6-3.79-9.13-5.52a67.92,67.92,0,0,0-6.42-3.47.38.38,0,0,0-.21,0c-41.73-20.58-93-21.63-134.6,0-24.08,12.53-41.92,32.19-48.77,58.77-6.33,24.62-5.78,51.38.35,76,12.61,50.59,52.67,91.46,105.2,99.08C272.42,264.62,323.4,236.85,341.23,190.24Zm-106,58.13c-48.17-1.77-91-33.61-109.14-77.82a129,129,0,0,1-6.85-76.08c5.68-26,22.06-45.94,45.11-58.77C208.16,11.3,264,12.85,307.57,36.88,326.73,48.39,338.94,68.65,344,90.29c3.39,14.46,3.87,29.45,3.42,44.25-.45,14.58-2,29.28-6.72,43.16C326,221.36,280.66,250,235.2,248.37Z"/><path class="cls-4" d="M243.86,276.69c52.92-7,101.52-43.15,118.51-94.49,16.51-49.91,5.66-110-28.83-149.9a133.89,133.89,0,0,0-14.35-14.23c-.28-.23-.69,1.14-.93,2.94C299,6.28,274.1.62,250,.06c-31.65-.75-64.86,5.74-92,22.58-53.57,33.25-69.06,102.05-51.36,159.79,9.12,29.72,27.24,60.58,53.8,77.84C184.6,276,215.66,280.42,243.86,276.69Zm-59.21-15.2C154,251.72,132.39,228,118.09,199.93S98,139.58,105.39,108.56c6.45-27.18,22-52.4,44.27-69.41,26.8-20.47,61.7-28.51,94.93-28.85,29.8-.3,61.33,6.59,82.68,28.75.7.72,1.05-.83,1.22-2.14,32.6,34,46.59,84.54,33.9,130.32-13.53,48.79-55.77,84.84-104.33,96.42C233.92,269.41,208.35,269,184.65,261.49Z"/><path class="cls-2" d="M139.89,102.86l.12-.77a129.79,129.79,0,0,0,1.58-22c-.28-11.39-5-22.37-11.73-31.56S114.36,31.8,105.21,25a243.82,243.82,0,0,0-27-17.48,327.08,327.08,0,0,0-10.17,34c-1.42,5.88-2.68,11.87-2.55,17.92.17,7.33,2.37,14.47,5.23,21.22,5.59,13.19,13.91,25.44,25.19,34.26a95.09,95.09,0,0,0,16.15,9.92c7.45,3.73,15.18,5.31,23.41,6.54Q137.68,117.11,139.89,102.86Z"/><path class="cls-2" d="M63.68,51.05l23.09,5.18C92.32,57.47,98,58.55,103.46,60q-2.25-5.22-4.59-10.39c-4.73-1.22-9.46-2.39-14.21-3.47q-3.73-.85-7.47-1.66c-2.55-.54-6.36-2.08-8.88-1.16-.65.24-.06-5.13,1.34-5.64,2.22-.81,4.59.09,6.83.55q4.36.91,8.72,1.9,5.2,1.19,10.4,2.47Q87.53,25.51,78.32,8.91c-.28-.5,5-.48,5.73.89Q91.51,23.2,98.22,37q1-9.69,1.22-19.45c0-.74,5.87-.06,5.85,1.33A228.63,228.63,0,0,1,103,47q2.48,5.34,4.83,10.73a129.86,129.86,0,0,0,6.31-25.44c.13-.94,6,.12,5.85,1.33a130.52,130.52,0,0,1-8.09,30.14c-.13.32-.64.43-1.3.41q3.38,8,6.51,16.08c3.73-11.27,9.83-21.79,11.1-33.76.09-.89,6,.06,5.84,1.33-1.52,14.33-10,26.58-13,40.54,0,.21-.35.32-.78.36,1.28,3.47,2.51,7,3.72,10.44l6.39-13c2.82-5.74,7-11.92,8-18.29.16-1,6,.14,5.85,1.32-1,6.38-5.21,12.56-8,18.3L127.14,106a.86.86,0,0,1-.69.38q3.13,9.45,5.93,19c.25.88-5.35.42-5.73-.89q-2.54-8.7-5.36-17.31l-42-6.37c-.77-.12.63-5.87,2-5.66l37.91,5.76q-2.13-6.25-4.41-12.44c-6.75-2-13.77-3.14-20.66-4.55L71,79.23c-.82-.17.77-5.89,2.07-5.63l23.19,4.72c5.32,1.08,10.72,2,16,3.3q-2.78-7.25-5.75-14.42c-7.11-2.39-14.58-3.75-21.9-5.39L61.49,56.63C60.68,56.45,62.38,50.76,63.68,51.05Z"/></g></g></g></svg>