<svg xmlns="http://www.w3.org/2000/svg" viewBox="0 0 338.32 301.63"><defs><style>.cls-1{isolation:isolate;}.cls-2{fill:#007435;}.cls-2,.cls-3,.cls-4{mix-blend-mode:multiply;}.cls-3{fill:#f0c700;}.cls-4{fill:#f8e12b;}</style></defs><g class="cls-1"><g id="Layer_2" data-name="Layer 2"><g id="Layer_7" data-name="Layer 7"><path class="cls-2" d="M238.49,88.21l.77-.09A130,130,0,0,0,260.93,84c10.94-3.23,20.33-10.61,27.44-19.52s12.13-19.3,16.34-29.9a244.59,244.59,0,0,0,9.9-30.59,328.24,328.24,0,0,0-35.48-1c-6.05.15-12.16.49-18,2.18-7,2.06-13.36,6-19.13,10.55-11.3,8.82-21,20-26.57,33.21A95,95,0,0,0,210.07,67c-1.68,8.17-1.19,16-.25,24.31Z"/><path class="cls-2" d="M268.77,1.17l1,23.65c.23,5.68.65,11.4.64,17.1q4.46-3.53,8.84-7.13c-.05-4.87-.14-9.75-.32-14.62-.1-2.55-.21-5.09-.34-7.64s.36-6.68-1.17-8.87c-.41-.58,4.93-1.4,5.79-.17,1.35,1.93,1.1,4.45,1.23,6.73q.26,4.45.43,8.92.21,5.34.3,10.68,14.47-12.24,28.11-25.43c.41-.4,1.74,4.68.62,5.76q-11,10.68-22.59,20.74,9.63-1.53,19.1-3.86c.73-.18,1.59,5.65.23,6a229.5,229.5,0,0,1-27.78,5.06q-4.52,3.77-9.11,7.44a129.66,129.66,0,0,0,26.2-.5c.95-.11,1.45,5.85.23,6A129.75,129.75,0,0,1,269,51c-.35,0-.59-.51-.73-1.15q-6.84,5.33-13.85,10.45c11.85.68,23.59,3.85,35.48,2,.88-.14,1.5,5.79.23,6-14.23,2.25-28.25-2.74-42.51-2-.22,0-.41-.24-.56-.65q-4.51,3.2-9.11,6.3l14.22,2.8c6.28,1.23,13.32,3.66,19.75,3,1-.09,1.42,5.88.23,6-6.43.65-13.47-1.78-19.75-3l-20.23-4a.89.89,0,0,1-.55-.57q-8.31,5.48-16.82,10.65c-.78.48-1.79-5.05-.62-5.76q7.74-4.71,15.32-9.66-2.35-21.11-4.72-42.21c-.09-.77,5.82-.91,6,.45q2.15,19.06,4.27,38.11,5.47-3.68,10.87-7.48c.17-7-.53-14.11-1-21.13q-.74-11.8-1.46-23.62c-.05-.83,5.89-.78,6,.55q.74,11.81,1.46,23.62c.33,5.42.83,10.88,1,16.32q6.28-4.54,12.44-9.28c.47-7.5-.16-15.06-.47-22.55l-1-23.64C262.78-.33,268.72-.15,268.77,1.17Z"/><path class="cls-3" d="M72.36,215c-.54,3.43,2.22,6.1,4.13,8.61,5.61,7.38,11.42,14.73,18.3,21,4.78,4.35,10.5,9.46,16.9,11.21,7.71,2.1,9.45-5.31,10.55-11.38,2.81-15.51,6.77-30.77,10.79-46,1.79-6.8,9.48-35-7-24.22L95.12,194.36C87.59,199.28,74,204.88,72.36,215Z"/><path class="cls-3" d="M54.56,132.46c-4.3,7.77-5.84,16.59-5.61,25.4.26,9.85,1.17,37.37,17.41,31.89l32.48-11,17.49-5.92c4.53-1.53,14.38-2.69,12.37-9.87-2.78-9.92-22.65-20.69-30.66-26.37s-16.76-12.48-25.85-16.43C63.82,116.55,58.14,126,54.56,132.46Z"/><path class="cls-3" d="M82.21,73a34,34,0,0,0-4.61,4.21c-7.42,8.19-3.36,16.59,2.78,24.43a67.55,67.55,0,0,0,7.82,8c13.48,12.29,27.06,24.63,39.71,37.86.82.86,1.81,1.79,3,1.72,1.82-.11,2.6-2.33,2.92-4.13,3.46-19.18,2.52-39.07,2.07-58.7-.18-8,1.81-18.49-4.61-24.66-6.66-6.41-15.52-2.09-23,.06C99.35,64.43,89.72,67.31,82.21,73Z"/><path class="cls-3" d="M153.64,82.18c-1.82,11.75-4,23.34-5.94,35.1-1.49,9.32-5.52,21-4.69,30.43,1.1,12.5,29.44-3.92,35.47-6.81,10.19-4.88,20.81-8.41,30.56-14.28,4.86-2.93,10.73-5.86,14.92-9.71,2.79-2.58,2.59-4.12.79-7.29-5.22-9.17-13.14-17.69-20.86-24.79a82.16,82.16,0,0,0-33.08-18.56c-8-2.27-14.83-.91-16.06,8.21C154.41,77.06,154,79.62,153.64,82.18Z"/><path class="cls-3" d="M154.56,163.39c-2.44,9.92,24.19,17.73,31.13,21.34,7.78,4.05,48.1,27.65,49.12,9.63Q235.89,175.19,237,156c.42-7.4.78-15.13-2.28-21.89-4-8.88-11-3-17.15-3l-42,17.56c-6.25,2.63-12.51,5.67-17.69,10.05A9.3,9.3,0,0,0,154.56,163.39Z"/><path class="cls-3" d="M144.47,177.13c-2.95,7.09-1.51,27.17-1.9,32.58-.9,12.75-1.69,25.5-2.28,38.27-.33,7,3.29,13.64,10.49,15.83,7.46,2.27,18-1.92,24.64-5.14,8.78-4.23,16.56-10.3,23.83-16.72,3.32-2.93,7.19-5.93,10.05-9.33,9.76-11.58-14.05-28.74-21.33-34.37-5.84-4.52-34.51-29.07-42.11-23.17A5,5,0,0,0,144.47,177.13Z"/><path class="cls-4" d="M120.25,149c-7.78,10.31-2,21.6,7.92,27.15,8.06,6.29,19,7.9,27.66.52,10.31-8.78,6.64-22.46-2.62-30.16C143.15,138.14,128.64,137.88,120.25,149Zm11.64,2.8c5-4,17.88-8.16,21.49-.2,2.7,5.94-.16,13.49-4.65,17.67a20.09,20.09,0,0,1-9.49,4.9c-1.92.41-7,1.05-9.4-.08a13.8,13.8,0,0,0-1.72-1.6,14.62,14.62,0,0,0-3.54-3.07,33.06,33.06,0,0,1-.24-4.57,15.52,15.52,0,0,1,1.8-6.13A21.7,21.7,0,0,1,131.89,151.8Z"/><path class="cls-4" d="M23.14,195.05c6.63,14.84,16.72,27.9,27.62,39.85s22.78,23.41,36,32.87c18.21,13,40.39,22.23,62.65,21a3.11,3.11,0,0,0,2.11.71c3.48-.72,6.93-1.58,10.35-2.55a67.15,67.15,0,0,0,7-2.09.29.29,0,0,0,.16-.15c44.06-14.95,81-50.43,95.15-95.19,8.17-25.9,6.88-52.41-7.08-76C244.21,91.57,224.89,73,203.17,60,158.47,33.12,101.24,32.54,58.71,64.3,19.2,93.8,2.79,149.48,23.14,195.05ZM57,79c35.32-32.81,88.14-40.6,132.2-22.15a129.18,129.18,0,0,1,58.65,49c14.37,22.41,16.88,48.08,9.65,73.45-13.75,48.26-54.32,86.64-102.13,100.46-21.68,5.41-44.64-.28-63.53-12-12.62-7.84-23.56-18.1-33.7-28.88-10-10.63-19.28-22.14-25.78-35.27C11.94,162.25,23.69,109.94,57,79Z"/><path class="cls-4" d="M30.87,65.07c-32.48,42.38-41.28,102.3-17,150.61,23.61,47,73.76,81.77,126.38,85.62a135,135,0,0,0,20.21-.09c.36,0-.32-1.29-1.42-2.74,24-3.19,45.64-16.81,63.09-33.46,22.9-21.85,41.8-49.92,49.08-81,14.36-61.39-23.33-121-76.68-149.3-27.46-14.58-62.1-23.58-93.08-17C73.28,23.68,48.17,42.5,30.87,65.07ZM83.48,34c28.58-14.76,60.61-13.3,90.59-3.53S230.93,58.91,247.66,86c14.66,23.78,21.5,52.61,17.78,80.39C261,199.85,242,230.22,218.71,254c-20.86,21.28-48,38.71-78.79,38.14-1,0-.16,1.33.65,2.37-47.08-1-92.72-26.83-116.12-68.17C-.49,182.22,3.9,126.85,30,84.33,43,63.19,61.38,45.37,83.48,34Z"/><path class="cls-2" d="M227.3,114.47l.46.63a130.36,130.36,0,0,0,14.45,16.69c8.26,7.85,19.34,12.3,30.61,14s22.78.86,34.06-.78a245.57,245.57,0,0,0,31.44-6.72,327,327,0,0,0-16.84-31.23c-3.16-5.17-6.5-10.29-10.88-14.48-5.29-5.06-11.9-8.55-18.69-11.3-13.28-5.38-27.82-8.16-42.05-6.42a95,95,0,0,0-18.42,4.41c-7.91,2.62-14.49,7-21.18,11.92Z"/><path class="cls-2" d="M317.82,97.22l-20,12.66c-4.8,3-9.55,6.27-14.49,9.11,3.51,1.4,7.05,2.77,10.59,4.1q6.3-3.72,12.5-7.59,3.24-2,6.45-4.12c2.19-1.41,6-3,7.1-5.45.3-.63,3.68,3.58,3,4.94-1,2.14-3.3,3.18-5.21,4.43q-3.74,2.45-7.51,4.83-4.51,2.85-9.11,5.6,17.83,6.42,36.08,11.64c.55.15-3.18,3.84-4.68,3.42q-14.76-4.2-29.25-9.21,6.14,7.57,12.89,14.61c.52.54-4.11,4.2-5.08,3.2a228.59,228.59,0,0,1-18.26-21.54q-5.52-2-11-4.17a129.23,129.23,0,0,0,13.52,22.44c.57.77-4.34,4.18-5.07,3.2a129.85,129.85,0,0,1-15.6-27c-.13-.32.15-.76.64-1.21q-8-3.26-16-6.77c5.33,10.61,8.46,22.36,16,31.72.56.7-4.27,4.19-5.08,3.2-9.06-11.21-11.75-25.85-19.49-37.84-.12-.19,0-.48.29-.81q-5-2.33-10-4.75l4.68,13.72c2.07,6,3.49,13.37,7.26,18.61.57.8-4.38,4.17-5.07,3.2-3.77-5.25-5.2-12.56-7.26-18.62l-6.66-19.51a.85.85,0,0,1,.22-.76q-8.9-4.47-17.64-9.25c-.8-.44,3.49-4.07,4.68-3.42q8,4.36,16,8.45l34.2-25.19c.63-.46,3.7,4.59,2.59,5.41L243.3,101.21q5.91,2.91,11.9,5.67c6.19-3.36,12-7.51,17.83-11.39l19.73-13.06c.7-.46,3.62,4.71,2.51,5.45q-9.87,6.53-19.73,13.06c-4.53,3-9,6.15-13.66,9q7.08,3.16,14.26,6.13c6.72-3.34,13-7.66,19.29-11.67l20-12.67C316.12,91.27,318.94,96.5,317.82,97.22Z"/></g></g></g></svg>