<svg xmlns="http://www.w3.org/2000/svg" viewBox="0 0 4035.26 519.77"><defs><style>.cls-1{fill:#f2ca06;}.cls-2{fill:#fff;}.cls-3{fill:#457960;}.cls-4{fill:#f7f6f5;}</style></defs><g id="Layer_2" data-name="Layer 2"><g id="graphic_element" data-name="graphic element"><path class="cls-1" d="M1157.13,213.41c-4.5-5.86-11.65-9.81-18.9-9.29-3.77.27-7.33,1.66-11,2.55-35.18,8.55-62.56-22.19-95-27-37.94-5.64-76,6.43-111.48,17.85-41.83,13.48-84.26,27.25-120.69,51.67s-66.74,61.32-73.2,105.07c-4.17,28.28-.08,62.07-21.64,80.5-6.28,5.36-14.59,9.19-17.68,16.89-5.16,12.83,8.38,26.55,22,29.48,18.47,4,37.65-2.13,55.54,5.71,62.81,27.51,115.63,40.93,180.18,10.89,42.45-19.76,92.37-42.63,127.34-73.59,49-43.36,50.67-82.45,56.41-134.85,3.23-29.45,50.79-38.06,29.75-73.46A24.16,24.16,0,0,0,1157.13,213.41Z"/><path class="cls-2" d="M871.86,519.77a173.69,173.69,0,0,1-17.87-.94c-26.06-2.72-53.26-10.92-90.93-27.42-9.39-4.12-19.4-4-30-3.85-8,.12-16.29.22-24.58-1.56-10.14-2.17-19.64-9.14-24.22-17.74-3.28-6.17-3.75-12.56-1.37-18.49,2.75-6.86,8.6-11.07,13.76-14.78,1.9-1.37,3.7-2.66,5.31-4,14.7-12.57,16.22-33.49,17.83-55.64.53-7.23,1.07-14.7,2.12-21.79,6-40.88,33.49-80.43,75.35-108.49,37.28-25,80.32-38.86,122-52.28,34.79-11.21,74.23-23.92,113.74-18,13.67,2,26.32,8.32,38.56,14.39,18,9,35.11,17.44,54.54,12.72,1-.26,2.09-.56,3.2-.88a41.09,41.09,0,0,1,8.63-1.81c8.52-.62,17.43,3.7,23.21,11.24h0a28.8,28.8,0,0,1,2,2.89c14.49,24.39.29,38.43-12.24,50.82-8.09,8-15.72,15.55-16.84,25.74-.31,2.78-.6,5.53-.89,8.24-5.22,48.87-9.35,87.47-57.17,129.81-34.71,30.73-83,53.19-125.58,73l-3,1.38C922.15,514,897.29,519.77,871.86,519.77ZM738.72,477.51c9.37,0,18.93.61,28.36,4.74,65.1,28.52,114.78,39.45,176.06,10.93l3-1.38c42-19.52,89.55-41.65,123.17-71.41,44.92-39.77,48.67-74.85,53.86-123.4.29-2.71.58-5.47.89-8.26,1.5-13.72,11.2-23.3,19.75-31.76,13.52-13.37,20.68-21.75,10.67-38.6a18.28,18.28,0,0,0-1.29-1.91h0c-3.71-4.84-9.42-7.72-14.57-7.36a33.12,33.12,0,0,0-6.57,1.45c-1.16.33-2.36.68-3.61,1-23,5.59-42.48-4.1-61.35-13.47-12.07-6-23.47-11.66-35.58-13.46-37.2-5.53-75.45,6.8-109.2,17.67-41,13.2-83.34,26.86-119.45,51.07-39.52,26.49-65.41,63.54-71,101.64-1,6.73-1.52,14-2,21-1.69,23.23-3.44,47.24-21.31,62.52-1.93,1.65-4,3.13-6,4.56-4.45,3.2-8.65,6.22-10.32,10.39-1.27,3.15-1,6.53.92,10.06,3.15,5.92,10.34,11.13,17.48,12.67s14.56,1.44,22.35,1.34C734.85,477.54,736.78,477.51,738.72,477.51Z"/><path class="cls-3" d="M1130.41,126.49c-.49,13.42-1.9,26.84-1.32,40.3.25,5.93.86,11.85,1.66,17.74,7.32-1.45,16-16.59,19.06-22.39a119.36,119.36,0,0,0,10.4-28.2c5.44-23.27,4.45-48.19-1.39-71.37a163.83,163.83,0,0,0-20.19-47.48c-3.17-5-5.3-8.81-8.14-9.57q.08,19.07.17,38.14C1130.78,71.25,1131.42,98.92,1130.41,126.49Z"/><path class="cls-2" d="M1130.09,189.76a3.44,3.44,0,0,1-4.07-2.91l-.22-1.65c-.92-6.75-1.48-12.7-1.71-18.2a280.83,280.83,0,0,1,.68-28.08c.24-4.14.49-8.43.64-12.62h0c.77-20.92.58-42.3.39-63q-.09-9.82-.14-19.64l-.18-40.19c0-2.26.52-4,2.71-3.37,0,0,26.91,12.78,35.48,61.23,4.51,25.51,6.81,50.62,1.4,73.73a124.38,124.38,0,0,1-10.83,29.38c-4.48,8.55-13.36,23.16-22.51,25Zm5.31-63.09c-.15,4.3-.41,8.63-.65,12.83-.52,8.91-1,18.12-.67,27.08v.08a3.43,3.43,0,0,0,6.28,1.76c1.63-2.5,3.33-5.37,5-8.6a114.38,114.38,0,0,0,10-27c5.05-21.56,4.57-45.42-1.37-69A159,159,0,0,0,1137,22a.77.77,0,0,0-1.43.4l.1,21.22q0,9.79.14,19.6c.19,20.79.38,42.29-.4,63.44Z"/><path class="cls-3" d="M1126.2,121.65c.4-13.78.34-27.58.27-41.38-.11-24.61-3.44-45.58-3.55-70.19-1.21.72.66-1.84-.91-.3-20.83,20.45-33.37,54-34.59,83.2a128.31,128.31,0,0,0,8.66,51.66c5.11,13.09,21.78,33.62,30.18,38.82a186.43,186.43,0,0,1-1.64-21.1C1124.41,148.77,1125.81,135.22,1126.2,121.65Z"/><path class="cls-2" d="M1131.73,189.43l-8.1-1.72c-9.08-5.62-26.67-27.05-32.21-41.26a133.64,133.64,0,0,1-9-53.68c1.35-32.4,15.51-66.37,36.08-86.56,1.13-1.11,3.47-3.62,5.11-5.39a1.11,1.11,0,0,1,1.93.69l4.79,78.61a363.06,363.06,0,0,1,.86,41.68h0c-.15,5.31-.46,10.67-.76,15.86-.46,8.09-1,16.46-.83,24.62a183.29,183.29,0,0,0,1.61,20.54Zm-10.54-171.5c-16.49,18.83-27.62,47.61-28.77,75.25a123.65,123.65,0,0,0,8.32,49.64c3.24,8.32,11.77,20.22,19.26,28.35-.22-3-.34-5.94-.38-8.74-.13-8.52.36-17.08.84-25.35.29-5.11.6-10.4.75-15.57.39-13.62.33-27.51.26-41Z"/><path class="cls-3" d="M1218.28,147.06c-9.68,7.62-19.92,14.62-29,23-4,3.68-7.74,7.58-11.36,11.59,5.54,4,21.51.8,27.43-.62a115.56,115.56,0,0,0,26.13-9.79c19.62-10.16,36.42-25.55,49-43.12a143.42,143.42,0,0,0,20.68-41.44c1.54-5.07,2.86-8.71,1.63-11l-26.53,22.66C1257.09,114.65,1238.15,131.43,1218.28,147.06Z"/><path class="cls-2" d="M1187.31,188.56c-6.46,0-10.16-1.37-12.28-2.89l-4.53-3.26,3.74-4.15c4.16-4.61,8-8.5,11.68-11.92,6.37-5.87,13.33-11.11,20.06-16.18,3-2.29,6.19-4.65,9.21-7h0c15.08-11.86,29.89-24.62,44.21-37q6.81-5.88,13.64-11.72l31.28-26.72,2.92,5.53c2.08,3.95.71,8.38-.87,13.51L1306,88.1A148,148,0,0,1,1284.57,131c-13.67,19.1-31.23,34.54-50.76,44.65a120.78,120.78,0,0,1-27.26,10.21A84.32,84.32,0,0,1,1187.31,188.56ZM1221.37,151c-3.1,2.44-6.29,4.84-9.37,7.16-6.54,4.92-13.3,10-19.3,15.55-1.63,1.5-3.29,3.11-5,4.85a81.21,81.21,0,0,0,16.52-2.43,110.25,110.25,0,0,0,25-9.36c18.14-9.39,34.47-23.77,47.23-41.59a138.61,138.61,0,0,0,18.86-36.59l-15.77,13.48q-6.81,5.82-13.6,11.68c-14.41,12.42-29.31,25.26-44.56,37.25Z"/><path class="cls-3" d="M1219.05,141.42c9.88-7.88,19.47-16.09,29.07-24.29l51.36-43.87a21.85,21.85,0,0,0-4.88-.76c-27.18-1.7-58.34,9.82-79.52,26.3a115.74,115.74,0,0,0-30.72,36.28c-6,11.12-10,34.29-8.44,42.93a174,174,0,0,1,13.72-13.57C1199,156.27,1209.33,149.19,1219.05,141.42Z"/><path class="cls-2" d="M1172.8,188.83l-1.8-9.93c-1.75-9.65,2.28-33.79,9-46.2a121.31,121.31,0,0,1,32-37.85c23.5-18.28,56-29,82.9-27.34a26,26,0,0,1,6,1l8.75,2.65-58.57,50c-9.38,8-19.09,16.3-28.94,24.17h0c-3.8,3-7.74,6-11.54,8.87-5.94,4.48-12.09,9.11-17.7,14a166.48,166.48,0,0,0-13.32,13.17ZM1287,77.36c-23,.59-49.25,10.15-68.83,25.39a111,111,0,0,0-29.39,34.7c-3.54,6.57-6.46,18.51-7.64,28,1.77-1.7,3.51-3.29,5.23-4.8,5.89-5.13,12.18-9.87,18.26-14.45,3.75-2.83,7.63-5.75,11.32-8.7,9.72-7.77,19.36-16,28.68-24Z"/><path class="cls-4" d="M1004.05,302c14,1.06,15.64-20.65,1.65-21.71S990.06,300.91,1004.05,302Z"/><path class="cls-4" d="M918.42,456.94c14,1.06,15.64-20.64,1.65-21.7S904.43,455.88,918.42,456.94Z"/><path class="cls-4" d="M945.1,383.36c14,1.06,15.63-20.64,1.64-21.7S931.11,382.3,945.1,383.36Z"/><path class="cls-4" d="M1030.7,417.51c14,1.06,15.63-20.64,1.64-21.71S1016.71,416.45,1030.7,417.51Z"/><path class="cls-4" d="M842,414.1c14,1.06,15.63-20.64,1.64-21.71S828,413,842,414.1Z"/><path class="cls-1" d="M475.73,213.41c-4.5-5.86-11.64-9.81-18.89-9.29-3.77.27-7.34,1.66-11,2.55-35.18,8.55-62.57-22.19-95-27-37.93-5.64-76,6.43-111.47,17.85-41.84,13.48-84.27,27.25-120.7,51.67S51.91,310.5,45.46,354.25c-4.17,28.28-.09,62.07-21.64,80.5-6.28,5.36-14.6,9.19-17.69,16.89-5.15,12.83,8.39,26.55,22,29.48,18.48,4,37.66-2.13,55.55,5.71,62.81,27.51,115.63,40.93,180.18,10.89,42.45-19.76,92.37-42.63,127.34-73.59,49-43.36,50.66-82.45,56.41-134.85,3.22-29.45,50.78-38.06,29.75-73.46A24.25,24.25,0,0,0,475.73,213.41Z"/><path class="cls-2" d="M190.47,519.77a173.54,173.54,0,0,1-17.87-.94c-26.07-2.72-53.26-10.92-90.93-27.42-9.4-4.12-19.41-4-30-3.85-8,.12-16.28.22-24.58-1.56C17,483.83,7.44,476.86,2.86,468.26c-3.27-6.17-3.75-12.56-1.37-18.49,2.76-6.86,8.6-11.07,13.76-14.78,1.9-1.37,3.7-2.66,5.32-4,14.7-12.57,16.22-33.49,17.83-55.64.52-7.23,1.07-14.7,2.12-21.79,6-40.88,33.49-80.43,75.35-108.49,37.27-25,80.32-38.86,122-52.28,34.79-11.21,74.22-23.92,113.74-18,13.67,2,26.32,8.32,38.56,14.39,18.05,9,35.1,17.44,54.54,12.72,1-.26,2.09-.56,3.2-.88a40.86,40.86,0,0,1,8.62-1.81c8.53-.62,17.43,3.7,23.22,11.24h0a30.59,30.59,0,0,1,2,2.89c14.49,24.39.29,38.43-12.24,50.82-8.09,8-15.73,15.55-16.84,25.74-.31,2.78-.6,5.53-.89,8.24-5.23,48.87-9.36,87.47-57.18,129.81-34.7,30.73-83,53.19-125.58,73l-3,1.38C240.76,514,215.9,519.77,190.47,519.77ZM57.33,477.51c9.37,0,18.93.61,28.35,4.74,65.11,28.52,114.79,39.45,176.07,10.93l3-1.38c42-19.52,89.55-41.65,123.16-71.41,44.92-39.77,48.67-74.85,53.86-123.4.3-2.71.59-5.47.9-8.26,1.5-13.72,11.19-23.3,19.75-31.76,13.52-13.37,20.68-21.75,10.67-38.6a18.38,18.38,0,0,0-1.3-1.91h0c-3.7-4.84-9.42-7.72-14.57-7.36a33,33,0,0,0-6.56,1.45c-1.16.33-2.37.68-3.61,1-23,5.59-42.49-4.1-61.35-13.47-12.07-6-23.48-11.66-35.58-13.46-37.21-5.53-75.46,6.8-109.21,17.67-41,13.2-83.33,26.86-119.44,51.07C81.92,279.83,56,316.88,50.41,355c-1,6.73-1.52,14-2,21-1.69,23.23-3.43,47.24-21.31,62.52-1.93,1.65-4,3.13-6,4.56-4.44,3.2-8.64,6.22-10.32,10.39-1.26,3.15-.95,6.53.92,10.06,3.15,5.92,10.34,11.13,17.49,12.67s14.56,1.44,22.35,1.34C53.45,477.54,55.39,477.51,57.33,477.51Z"/><path class="cls-3" d="M449,126.49c-.49,13.42-1.89,26.84-1.32,40.3.26,5.93.87,11.85,1.67,17.74,7.32-1.45,16-16.59,19.06-22.39a119.33,119.33,0,0,0,10.39-28.2c5.45-23.27,4.46-48.19-1.38-71.37a164.38,164.38,0,0,0-20.19-47.48c-3.17-5-5.3-8.81-8.15-9.57q.09,19.07.17,38.14C449.39,71.25,450,98.92,449,126.49Z"/><path class="cls-2" d="M448.7,189.76a3.44,3.44,0,0,1-4.07-2.91l-.23-1.65c-.91-6.75-1.47-12.7-1.7-18.2a277.89,277.89,0,0,1,.67-28.08c.24-4.14.49-8.43.65-12.62h0c.76-20.92.57-42.3.39-63q-.09-9.82-.15-19.64l-.18-40.19c0-2.26.53-4,2.72-3.37,0,0,26.91,12.78,35.48,61.23,4.51,25.51,6.81,50.62,1.4,73.73a124.82,124.82,0,0,1-10.83,29.38c-4.48,8.55-13.36,23.16-22.52,25ZM454,126.67c-.16,4.3-.41,8.63-.65,12.83a268.67,268.67,0,0,0-.67,27.08v.08a3.42,3.42,0,0,0,6.27,1.76c1.64-2.5,3.34-5.37,5-8.6a114.36,114.36,0,0,0,9.95-27c5.05-21.56,4.58-45.42-1.36-69A159.34,159.34,0,0,0,455.6,22a.77.77,0,0,0-1.43.4l.09,21.22q0,9.79.15,19.6c.18,20.79.37,42.29-.4,63.44Z"/><path class="cls-3" d="M444.81,121.65c.4-13.78.33-27.58.27-41.38-.11-24.61-3.45-45.58-3.56-70.19-1.21.72.66-1.84-.9-.3C419.78,30.23,407.25,63.73,406,93a128.31,128.31,0,0,0,8.66,51.66c5.1,13.09,21.78,33.62,30.18,38.82a188.79,188.79,0,0,1-1.65-21.1C443,148.77,444.42,135.22,444.81,121.65Z"/><path class="cls-2" d="M450.33,189.43l-8.09-1.72c-9.09-5.62-26.67-27.05-32.21-41.26a133.83,133.83,0,0,1-9-53.68c1.36-32.4,15.52-66.37,36.09-86.56,1.12-1.11,3.46-3.62,5.1-5.39a1.11,1.11,0,0,1,1.93.69L449,80.12a365.34,365.34,0,0,1,.86,41.68h0c-.15,5.31-.46,10.67-.76,15.86-.47,8.09-.95,16.46-.83,24.62a181,181,0,0,0,1.61,20.54ZM439.8,17.93C423.31,36.76,412.18,65.54,411,93.18a123.65,123.65,0,0,0,8.32,49.64c3.24,8.32,11.77,20.22,19.25,28.35-.21-3-.33-5.94-.38-8.74-.13-8.52.37-17.08.84-25.35.3-5.11.6-10.4.75-15.57.39-13.62.33-27.51.27-41Z"/><path class="cls-3" d="M536.88,147.06c-9.68,7.62-19.92,14.62-29,23-4,3.68-7.74,7.58-11.36,11.59,5.54,4,21.5.8,27.43-.62a115.74,115.74,0,0,0,26.13-9.79c19.62-10.16,36.41-25.55,49-43.12a143.39,143.39,0,0,0,20.67-41.44c1.55-5.07,2.87-8.71,1.64-11L594.89,98.25C575.69,114.65,556.76,131.43,536.88,147.06Z"/><path class="cls-2" d="M505.91,188.56c-6.46,0-10.15-1.37-12.27-2.89l-4.54-3.26,3.75-4.15c4.16-4.61,8-8.5,11.68-11.92,6.37-5.87,13.33-11.11,20.06-16.18,3-2.29,6.19-4.65,9.2-7h0c15.08-11.86,29.9-24.62,44.22-37q6.81-5.88,13.63-11.72l31.29-26.72,2.91,5.53c2.08,3.95.72,8.38-.87,13.51l-.41,1.33A147.74,147.74,0,0,1,603.18,131c-13.68,19.1-31.23,34.54-50.76,44.65a120.68,120.68,0,0,1-27.27,10.21A84.25,84.25,0,0,1,505.91,188.56ZM540,151c-3.1,2.44-6.28,4.84-9.37,7.16-6.53,4.92-13.29,10-19.29,15.55-1.63,1.5-3.3,3.11-5,4.85a81.29,81.29,0,0,0,16.53-2.43,110.61,110.61,0,0,0,25-9.36c18.14-9.39,34.47-23.77,47.23-41.59a138.91,138.91,0,0,0,18.86-36.59l-15.77,13.48q-6.81,5.82-13.6,11.68C570.13,126.16,555.23,139,540,151Z"/><path class="cls-3" d="M537.66,141.42c9.87-7.88,19.47-16.09,29.07-24.29l51.36-43.87a21.85,21.85,0,0,0-4.89-.76c-27.18-1.7-58.33,9.82-79.51,26.3A115.61,115.61,0,0,0,503,135.08c-6,11.12-10,34.29-8.44,42.93a170.61,170.61,0,0,1,13.72-13.57C517.61,156.27,527.94,149.19,537.66,141.42Z"/><path class="cls-2" d="M491.41,188.83l-1.8-9.93c-1.76-9.65,2.27-33.79,8.95-46.2a121.48,121.48,0,0,1,32.06-37.85c23.5-18.28,56-29,82.9-27.34a26.2,26.2,0,0,1,6,1l8.75,2.65-58.57,50c-9.39,8-19.09,16.3-28.94,24.17h0c-3.81,3-7.74,6-11.55,8.87-5.94,4.48-12.08,9.11-17.7,14a168.16,168.16,0,0,0-13.31,13.17ZM605.59,77.36c-23,.59-49.25,10.15-68.83,25.39a111,111,0,0,0-29.39,34.7c-3.54,6.57-6.47,18.51-7.64,28,1.77-1.7,3.51-3.29,5.23-4.8,5.88-5.13,12.17-9.87,18.25-14.45,3.75-2.83,7.63-5.75,11.33-8.7,9.72-7.77,19.36-16,28.68-24Z"/><path class="cls-4" d="M322.66,302c14,1.06,15.64-20.65,1.65-21.71S308.67,300.91,322.66,302Z"/><path class="cls-4" d="M237,456.94c14,1.06,15.64-20.64,1.65-21.7S223,455.88,237,456.94Z"/><path class="cls-4" d="M263.7,383.36c14,1.06,15.64-20.64,1.65-21.7S249.71,382.3,263.7,383.36Z"/><path class="cls-4" d="M349.3,417.51c14,1.06,15.64-20.64,1.65-21.71S335.31,416.45,349.3,417.51Z"/><path class="cls-4" d="M160.55,414.1c14,1.06,15.64-20.64,1.65-21.71S146.56,413,160.55,414.1Z"/><path class="cls-1" d="M1838.52,213.41c-4.5-5.86-11.65-9.81-18.89-9.29-3.77.27-7.34,1.66-11,2.55-35.18,8.55-62.57-22.19-95-27-37.93-5.64-76,6.43-111.47,17.85-41.84,13.48-84.27,27.25-120.7,51.67s-66.74,61.32-73.19,105.07c-4.17,28.28-.09,62.07-21.65,80.5-6.27,5.36-14.59,9.19-17.68,16.89-5.15,12.83,8.39,26.55,22,29.48,18.47,4,37.65-2.13,55.54,5.71,62.82,27.51,115.63,40.93,180.19,10.89C1669.09,478,1719,455.09,1754,424.13c49-43.36,50.67-82.45,56.41-134.85,3.23-29.45,50.79-38.06,29.76-73.46A26.11,26.11,0,0,0,1838.52,213.41Z"/><path class="cls-2" d="M1553.26,519.77a173.73,173.73,0,0,1-17.88-.94c-26.06-2.72-53.25-10.92-90.92-27.42-9.4-4.12-19.41-4-30-3.85-8,.12-16.28.22-24.58-1.56-10.13-2.17-19.64-9.14-24.22-17.74-3.28-6.17-3.75-12.56-1.37-18.49,2.76-6.86,8.6-11.07,13.76-14.78,1.9-1.37,3.7-2.66,5.31-4,14.7-12.57,16.23-33.49,17.84-55.64.52-7.23,1.07-14.7,2.11-21.79,6-40.88,33.5-80.43,75.36-108.49,37.27-25,80.32-38.86,121.94-52.28,34.8-11.21,74.23-23.92,113.75-18,13.66,2,26.32,8.32,38.55,14.39,18.06,9,35.11,17.44,54.55,12.72,1-.26,2.08-.56,3.19-.88a41.09,41.09,0,0,1,8.63-1.81c8.53-.62,17.43,3.7,23.22,11.24h0a30.59,30.59,0,0,1,2,2.89c14.49,24.39.28,38.43-12.25,50.82-8.08,8-15.72,15.55-16.84,25.74q-.45,4.17-.88,8.24c-5.23,48.87-9.36,87.47-57.18,129.81-34.71,30.73-83,53.19-125.58,73l-3,1.38C1603.54,514,1578.68,519.77,1553.26,519.77Zm-133.14-42.26c9.37,0,18.92.61,28.35,4.74,65.1,28.52,114.79,39.45,176.07,10.93l3-1.38c42-19.52,89.56-41.65,123.17-71.41,44.92-39.77,48.67-74.85,53.86-123.4.29-2.71.59-5.47.89-8.26,1.51-13.72,11.2-23.3,19.75-31.76,13.53-13.37,20.69-21.75,10.68-38.6a20.09,20.09,0,0,0-1.3-1.91h0c-3.71-4.84-9.42-7.72-14.57-7.36a33,33,0,0,0-6.56,1.45c-1.17.33-2.37.68-3.61,1-23,5.59-42.49-4.1-61.35-13.47-12.08-6-23.48-11.66-35.58-13.46-37.21-5.53-75.46,6.8-109.21,17.67-41,13.2-83.34,26.86-119.45,51.07-39.52,26.49-65.4,63.54-71,101.64-1,6.73-1.53,14-2,21-1.69,23.23-3.43,47.24-21.31,62.52-1.93,1.65-4,3.13-6,4.56-4.45,3.2-8.64,6.22-10.32,10.39-1.27,3.15-1,6.53.92,10.06,3.15,5.92,10.34,11.13,17.49,12.67s14.55,1.44,22.35,1.34C1416.24,477.54,1418.17,477.51,1420.12,477.51Z"/><path class="cls-3" d="M1811.8,126.49c-.49,13.42-1.9,26.84-1.32,40.3.25,5.93.87,11.85,1.67,17.74,7.31-1.45,16-16.59,19-22.39a118.92,118.92,0,0,0,10.4-28.2c5.45-23.27,4.45-48.19-1.39-71.37A164.08,164.08,0,0,0,1820,15.09c-3.18-5-5.31-8.81-8.15-9.57q.09,19.07.17,38.14C1812.17,71.25,1812.81,98.92,1811.8,126.49Z"/><path class="cls-2" d="M1811.48,189.76a3.43,3.43,0,0,1-4.06-2.91l-.23-1.65c-.91-6.75-1.47-12.7-1.71-18.2a280.83,280.83,0,0,1,.68-28.08c.24-4.14.49-8.43.64-12.62h0c.77-20.92.58-42.3.4-63q-.09-9.82-.15-19.64l-.18-40.19c0-2.26.53-4,2.71-3.37,0,0,26.92,12.78,35.48,61.23,4.52,25.51,6.82,50.62,1.41,73.73a124.4,124.4,0,0,1-10.84,29.38c-4.47,8.55-13.35,23.16-22.51,25Zm5.32-63.09c-.16,4.3-.41,8.63-.66,12.83-.51,8.91-1.05,18.12-.67,27.08v.08a3.42,3.42,0,0,0,6.27,1.76c1.64-2.5,3.33-5.37,5-8.6a114.8,114.8,0,0,0,10-27c5-21.56,4.58-45.42-1.36-69a159.68,159.68,0,0,0-17-41.78.77.77,0,0,0-1.44.4l.1,21.22q0,9.79.15,19.6c.18,20.79.37,42.29-.4,63.44Z"/><path class="cls-3" d="M1807.6,121.65c.4-13.78.33-27.58.27-41.38-.11-24.61-3.45-45.58-3.56-70.19-1.21.72.66-1.84-.9-.3-20.84,20.45-33.37,54-34.59,83.2a128.13,128.13,0,0,0,8.66,51.66c5.1,13.09,21.77,33.62,30.18,38.82a186.45,186.45,0,0,1-1.65-21.1C1805.8,148.77,1807.21,135.22,1807.6,121.65Z"/><path class="cls-2" d="M1813.12,189.43l-8.09-1.72c-9.09-5.62-26.68-27.05-32.21-41.26a133.83,133.83,0,0,1-9-53.68c1.35-32.4,15.52-66.37,36.08-86.56,1.13-1.11,3.47-3.62,5.11-5.39a1.11,1.11,0,0,1,1.93.69l4.8,78.61a367.65,367.65,0,0,1,.86,41.68h0c-.16,5.31-.47,10.67-.76,15.86-.47,8.09-.95,16.46-.83,24.62a181,181,0,0,0,1.61,20.54Zm-10.53-171.5c-16.5,18.83-27.62,47.61-28.78,75.25a123.66,123.66,0,0,0,8.33,49.64c3.23,8.32,11.77,20.22,19.25,28.35q-.32-4.54-.38-8.74c-.13-8.52.36-17.08.84-25.35.3-5.11.6-10.4.75-15.57.39-13.62.33-27.51.27-41Z"/><path class="cls-3" d="M1899.67,147.06c-9.68,7.62-19.92,14.62-29,23-4,3.68-7.73,7.58-11.35,11.59,5.54,4,21.5.8,27.43-.62a115.74,115.74,0,0,0,26.13-9.79c19.62-10.16,36.41-25.55,49-43.12a143.64,143.64,0,0,0,20.67-41.44c1.55-5.07,2.87-8.71,1.64-11l-26.53,22.66C1938.48,114.65,1919.55,131.43,1899.67,147.06Z"/><path class="cls-2" d="M1868.7,188.56c-6.46,0-10.16-1.37-12.27-2.89l-4.54-3.26,3.74-4.15c4.16-4.61,8-8.5,11.69-11.92,6.37-5.87,13.33-11.11,20.06-16.18,3-2.29,6.18-4.65,9.2-7h0c15.08-11.86,29.89-24.62,44.22-37q6.81-5.88,13.63-11.72l31.29-26.72,2.91,5.53c2.08,3.95.71,8.38-.87,13.51l-.41,1.33A147.77,147.77,0,0,1,1966,131c-13.67,19.1-31.22,34.54-50.76,44.65a120.6,120.6,0,0,1-27.26,10.21A84.25,84.25,0,0,1,1868.7,188.56ZM1902.76,151c-3.1,2.44-6.29,4.84-9.37,7.16-6.53,4.92-13.29,10-19.3,15.55-1.63,1.5-3.29,3.11-5,4.85a81.21,81.21,0,0,0,16.52-2.43,110.5,110.5,0,0,0,25-9.36c18.13-9.39,34.46-23.77,47.22-41.59a138.94,138.94,0,0,0,18.87-36.59l-15.77,13.48q-6.83,5.82-13.6,11.68C1932.92,126.16,1918,139,1902.76,151Z"/><path class="cls-3" d="M1900.45,141.42c9.87-7.88,19.47-16.09,29.07-24.29l51.36-43.87a22,22,0,0,0-4.89-.76c-27.18-1.7-58.33,9.82-79.51,26.3a115.77,115.77,0,0,0-30.73,36.28c-6,11.12-10,34.29-8.44,42.93A174,174,0,0,1,1871,164.44C1880.4,156.27,1890.73,149.19,1900.45,141.42Z"/><path class="cls-2" d="M1854.2,188.83l-1.81-9.93c-1.75-9.65,2.28-33.79,9-46.2a121.34,121.34,0,0,1,32.06-37.85c23.5-18.28,56-29,82.89-27.34a26,26,0,0,1,6,1l8.75,2.65-58.57,50c-9.38,8-19.09,16.3-28.93,24.17h0c-3.81,3-7.75,6-11.55,8.87-5.94,4.48-12.08,9.11-17.7,14A168.16,168.16,0,0,0,1861,181.38ZM1968.37,77.36c-23,.59-49.25,10.15-68.82,25.39a110.88,110.88,0,0,0-29.39,34.7c-3.54,6.57-6.47,18.51-7.64,28,1.77-1.7,3.5-3.29,5.23-4.8,5.88-5.13,12.17-9.87,18.25-14.45,3.75-2.83,7.63-5.75,11.32-8.7,9.72-7.77,19.37-16,28.69-24Z"/><path class="cls-4" d="M1685.45,302c14,1.06,15.63-20.65,1.64-21.71S1671.46,300.91,1685.45,302Z"/><path class="cls-4" d="M1599.82,456.94c14,1.06,15.63-20.64,1.64-21.7S1585.83,455.88,1599.82,456.94Z"/><path class="cls-4" d="M1626.49,383.36c14,1.06,15.64-20.64,1.65-21.7S1612.5,382.3,1626.49,383.36Z"/><path class="cls-4" d="M1712.09,417.51c14,1.06,15.64-20.64,1.65-21.71S1698.1,416.45,1712.09,417.51Z"/><path class="cls-4" d="M1523.34,414.1c14,1.06,15.64-20.64,1.65-21.71S1509.35,413,1523.34,414.1Z"/><path class="cls-1" d="M2519.91,213.41c-4.49-5.86-11.64-9.81-18.89-9.29-3.77.27-7.34,1.66-11,2.55-35.18,8.55-62.57-22.19-95-27-37.93-5.64-76,6.43-111.47,17.85-41.83,13.48-84.26,27.25-120.7,51.67s-66.73,61.32-73.19,105.07c-4.17,28.28-.09,62.07-21.64,80.5-6.28,5.36-14.6,9.19-17.69,16.89-5.15,12.83,8.39,26.55,22,29.48,18.48,4,37.66-2.13,55.55,5.71,62.81,27.51,115.63,40.93,180.18,10.89,42.45-19.76,92.37-42.63,127.34-73.59,49-43.36,50.66-82.45,56.41-134.85,3.22-29.45,50.78-38.06,29.75-73.46A24.25,24.25,0,0,0,2519.91,213.41Z"/><path class="cls-2" d="M2234.65,519.77a173.69,173.69,0,0,1-17.87-.94c-26.07-2.72-53.26-10.92-90.93-27.42-9.4-4.12-19.41-4-30-3.85-8,.12-16.28.22-24.58-1.56-10.13-2.17-19.64-9.14-24.21-17.74-3.28-6.17-3.76-12.56-1.38-18.49,2.76-6.86,8.61-11.07,13.76-14.78,1.91-1.37,3.7-2.66,5.32-4,14.7-12.57,16.22-33.49,17.83-55.64.53-7.23,1.07-14.7,2.12-21.79,6-40.88,33.49-80.43,75.35-108.49,37.28-25,80.32-38.86,121.95-52.28,34.79-11.21,74.22-23.92,113.74-18,13.67,2,26.32,8.32,38.56,14.39,18,9,35.1,17.44,54.54,12.72,1-.26,2.09-.56,3.2-.88a40.86,40.86,0,0,1,8.62-1.81c8.53-.62,17.43,3.7,23.22,11.24h0a30.59,30.59,0,0,1,2,2.89c14.49,24.39.29,38.43-12.24,50.82-8.09,8-15.73,15.55-16.84,25.74-.31,2.78-.6,5.53-.89,8.24-5.23,48.87-9.36,87.47-57.18,129.81-34.7,30.73-83,53.19-125.57,73l-3,1.38C2284.94,514,2260.08,519.77,2234.65,519.77Zm-133.14-42.26c9.37,0,18.93.61,28.35,4.74,65.11,28.52,114.79,39.45,176.07,10.93l3-1.38c42-19.52,89.55-41.65,123.16-71.41,44.92-39.77,48.67-74.85,53.87-123.4.29-2.71.58-5.47.89-8.26,1.5-13.72,11.19-23.3,19.75-31.76,13.52-13.37,20.68-21.75,10.67-38.6a20,20,0,0,0-1.29-1.91h0c-3.71-4.84-9.43-7.72-14.57-7.36a33,33,0,0,0-6.57,1.45c-1.16.33-2.36.68-3.61,1-23,5.59-42.49-4.1-61.35-13.47-12.07-6-23.48-11.66-35.58-13.46-37.2-5.53-75.46,6.8-109.21,17.67-41,13.2-83.33,26.86-119.44,51.07-39.52,26.49-65.41,63.54-71,101.64-1,6.73-1.52,14-2,21-1.68,23.23-3.43,47.24-21.3,62.52-1.94,1.65-4,3.13-6,4.56-4.44,3.2-8.64,6.22-10.32,10.39-1.26,3.15-.95,6.53.92,10.06,3.16,5.92,10.35,11.13,17.49,12.67s14.56,1.44,22.35,1.34C2097.63,477.54,2099.57,477.51,2101.51,477.51Z"/><path class="cls-3" d="M2493.19,126.49c-.49,13.42-1.89,26.84-1.32,40.3.26,5.93.87,11.85,1.67,17.74,7.32-1.45,16-16.59,19.06-22.39a118.89,118.89,0,0,0,10.39-28.2c5.45-23.27,4.46-48.19-1.38-71.37a164.38,164.38,0,0,0-20.19-47.48c-3.17-5-5.3-8.81-8.15-9.57q.09,19.07.17,38.14C2493.57,71.25,2494.2,98.92,2493.19,126.49Z"/><path class="cls-2" d="M2492.88,189.76a3.44,3.44,0,0,1-4.07-2.91l-.22-1.65c-.92-6.75-1.48-12.7-1.71-18.2a277.89,277.89,0,0,1,.67-28.08c.25-4.14.49-8.43.65-12.62h0c.76-20.92.57-42.3.39-63q-.09-9.82-.15-19.64l-.18-40.19c0-2.26.53-4,2.72-3.37,0,0,26.91,12.78,35.48,61.23,4.51,25.51,6.81,50.62,1.4,73.73A124.38,124.38,0,0,1,2517,164.46c-4.48,8.55-13.36,23.16-22.52,25Zm5.31-63.09c-.16,4.3-.41,8.63-.65,12.83-.52,8.91-1.05,18.12-.67,27.08v.08a3.42,3.42,0,0,0,6.27,1.76c1.64-2.5,3.34-5.37,5-8.6a114.38,114.38,0,0,0,10-27c5-21.56,4.57-45.42-1.37-69a159.34,159.34,0,0,0-17-41.78.77.77,0,0,0-1.43.4l.09,21.22q0,9.79.15,19.6c.18,20.79.37,42.29-.4,63.44Z"/><path class="cls-3" d="M2489,121.65c.4-13.78.33-27.58.27-41.38-.11-24.61-3.45-45.58-3.56-70.19-1.21.72.67-1.84-.9-.3-20.84,20.45-33.37,54-34.59,83.2a128.31,128.31,0,0,0,8.66,51.66c5.1,13.09,21.78,33.62,30.18,38.82a188.79,188.79,0,0,1-1.65-21.1C2487.2,148.77,2488.6,135.22,2489,121.65Z"/><path class="cls-2" d="M2494.51,189.43l-8.09-1.72c-9.09-5.62-26.67-27.05-32.21-41.26a133.83,133.83,0,0,1-9-53.68c1.36-32.4,15.52-66.37,36.09-86.56,1.12-1.11,3.47-3.62,5.1-5.39a1.12,1.12,0,0,1,1.94.69l4.79,78.61a365.34,365.34,0,0,1,.86,41.68h0c-.15,5.31-.46,10.67-.76,15.86-.47,8.09-.95,16.46-.83,24.62a183.29,183.29,0,0,0,1.61,20.54ZM2484,17.93c-16.49,18.83-27.62,47.61-28.77,75.25a123.65,123.65,0,0,0,8.32,49.64c3.24,8.32,11.77,20.22,19.25,28.35-.21-3-.33-5.94-.38-8.74-.12-8.52.37-17.08.85-25.35.29-5.11.6-10.4.74-15.57.4-13.62.33-27.51.27-41Z"/><path class="cls-3" d="M2581.06,147.06c-9.68,7.62-19.92,14.62-29,23-4,3.68-7.74,7.58-11.36,11.59,5.54,4,21.5.8,27.43-.62a115.56,115.56,0,0,0,26.13-9.79c19.62-10.16,36.42-25.55,49-43.12A143.39,143.39,0,0,0,2664,86.64c1.55-5.07,2.87-8.71,1.64-11l-26.53,22.66C2619.87,114.65,2600.94,131.43,2581.06,147.06Z"/><path class="cls-2" d="M2550.09,188.56c-6.45,0-10.15-1.37-12.27-2.89l-4.53-3.26,3.74-4.15c4.16-4.61,8-8.5,11.68-11.92,6.37-5.87,13.33-11.11,20.06-16.18,3-2.29,6.19-4.65,9.2-7h0c15.08-11.86,29.9-24.62,44.22-37q6.81-5.88,13.63-11.72l31.29-26.72,2.91,5.53c2.09,3.95.72,8.38-.87,13.51l-.4,1.33A148,148,0,0,1,2647.36,131c-13.68,19.1-31.23,34.54-50.76,44.65a120.68,120.68,0,0,1-27.27,10.21A84.25,84.25,0,0,1,2550.09,188.56ZM2584.16,151c-3.1,2.44-6.29,4.84-9.38,7.16-6.53,4.92-13.29,10-19.29,15.55-1.63,1.5-3.29,3.11-5,4.85a81.29,81.29,0,0,0,16.53-2.43,110.61,110.61,0,0,0,25-9.36c18.14-9.39,34.47-23.77,47.23-41.59a138.91,138.91,0,0,0,18.86-36.59l-15.77,13.48q-6.81,5.82-13.6,11.68c-14.41,12.42-29.31,25.26-44.56,37.25Z"/><path class="cls-3" d="M2581.84,141.42c9.87-7.88,19.47-16.09,29.07-24.29l51.36-43.87a21.85,21.85,0,0,0-4.88-.76c-27.19-1.7-58.34,9.82-79.52,26.3a115.61,115.61,0,0,0-30.72,36.28c-6,11.12-10,34.29-8.44,42.93a172.28,172.28,0,0,1,13.72-13.57C2561.79,156.27,2572.12,149.19,2581.84,141.42Z"/><path class="cls-2" d="M2535.59,188.83l-1.8-9.93c-1.75-9.65,2.28-33.79,9-46.2a121.31,121.31,0,0,1,32.05-37.85c23.5-18.28,56-29,82.9-27.34a26,26,0,0,1,6,1l8.75,2.65-58.57,50c-9.39,8-19.09,16.3-28.94,24.17h0c-3.81,3-7.74,6-11.55,8.87-5.94,4.48-12.08,9.11-17.69,14a166.48,166.48,0,0,0-13.32,13.17ZM2649.77,77.36c-23,.59-49.25,10.15-68.83,25.39a111,111,0,0,0-29.39,34.7c-3.54,6.57-6.46,18.51-7.64,28,1.77-1.7,3.51-3.29,5.23-4.8,5.89-5.13,12.17-9.87,18.26-14.45,3.75-2.83,7.62-5.75,11.32-8.7,9.72-7.77,19.36-16,28.68-24Z"/><path class="cls-4" d="M2366.84,302c14,1.06,15.64-20.65,1.65-21.71S2352.85,300.91,2366.84,302Z"/><path class="cls-4" d="M2281.21,456.94c14,1.06,15.64-20.64,1.65-21.7S2267.22,455.88,2281.21,456.94Z"/><path class="cls-4" d="M2307.88,383.36c14,1.06,15.64-20.64,1.65-21.7S2293.89,382.3,2307.88,383.36Z"/><path class="cls-4" d="M2393.48,417.51c14,1.06,15.64-20.64,1.65-21.71S2379.49,416.45,2393.48,417.51Z"/><path class="cls-4" d="M2204.73,414.1c14,1.06,15.64-20.64,1.65-21.71S2190.74,413,2204.73,414.1Z"/><path class="cls-1" d="M3201.31,213.41c-4.5-5.86-11.65-9.81-18.9-9.29-3.77.27-7.33,1.66-11,2.55-35.19,8.55-62.57-22.19-95-27-37.94-5.64-76,6.43-111.48,17.85-41.83,13.48-84.26,27.25-120.69,51.67S2777.49,310.5,2771,354.25c-4.18,28.28-.09,62.07-21.65,80.5-6.27,5.36-14.59,9.19-17.68,16.89-5.16,12.83,8.39,26.55,22,29.48,18.47,4,37.65-2.13,55.54,5.71,62.81,27.51,115.63,40.93,180.18,10.89,42.45-19.76,92.37-42.63,127.34-73.59,49-43.36,50.67-82.45,56.41-134.85,3.23-29.45,50.79-38.06,29.75-73.46A24.16,24.16,0,0,0,3201.31,213.41Z"/><path class="cls-2" d="M2916.05,519.77a173.73,173.73,0,0,1-17.88-.94c-26.06-2.72-53.26-10.92-90.93-27.42-9.39-4.12-19.4-4-30-3.85-8,.12-16.29.22-24.58-1.56-10.14-2.17-19.64-9.14-24.22-17.74-3.28-6.17-3.75-12.56-1.37-18.49,2.75-6.86,8.6-11.07,13.76-14.78,1.9-1.37,3.7-2.66,5.31-4,14.7-12.57,16.22-33.49,17.83-55.64.53-7.23,1.07-14.7,2.12-21.79,6-40.88,33.5-80.43,75.35-108.49,37.28-25,80.32-38.86,121.95-52.28,34.79-11.21,74.23-23.92,113.74-18,13.67,2,26.33,8.32,38.56,14.39,18.06,9,35.11,17.44,54.54,12.72,1-.26,2.09-.56,3.2-.88a41.09,41.09,0,0,1,8.63-1.81c8.52-.62,17.43,3.7,23.21,11.24h0a30.48,30.48,0,0,1,1.95,2.89c14.49,24.39.29,38.43-12.24,50.82-8.08,8-15.72,15.55-16.84,25.74q-.45,4.17-.89,8.24c-5.22,48.87-9.35,87.47-57.17,129.81-34.71,30.73-83,53.19-125.58,73l-3,1.38C2966.33,514,2941.47,519.77,2916.05,519.77Zm-133.14-42.26c9.36,0,18.92.61,28.35,4.74,65.1,28.52,114.78,39.45,176.06,10.93l3-1.38c42-19.52,89.55-41.65,123.17-71.41,44.92-39.77,48.67-74.85,53.86-123.4.29-2.71.58-5.47.89-8.26,1.5-13.72,11.2-23.3,19.75-31.76,13.52-13.37,20.69-21.75,10.68-38.6a20.09,20.09,0,0,0-1.3-1.91h0c-3.71-4.84-9.42-7.72-14.57-7.36a33.12,33.12,0,0,0-6.57,1.45c-1.16.33-2.36.68-3.61,1-23,5.59-42.48-4.1-61.35-13.47-12.07-6-23.47-11.66-35.58-13.46-37.2-5.53-75.45,6.8-109.2,17.67-41,13.2-83.34,26.86-119.45,51.07-39.52,26.49-65.41,63.54-71,101.64-1,6.73-1.52,14-2,21-1.69,23.23-3.44,47.24-21.31,62.52-1.93,1.65-4,3.13-6,4.56-4.45,3.2-8.65,6.22-10.32,10.39-1.27,3.15-1,6.53.92,10.06,3.15,5.92,10.34,11.13,17.49,12.67s14.55,1.44,22.34,1.34C2779,477.54,2781,477.51,2782.91,477.51Z"/><path class="cls-3" d="M3174.59,126.49c-.49,13.42-1.9,26.84-1.32,40.3.25,5.93.87,11.85,1.67,17.74,7.31-1.45,16-16.59,19-22.39a119.36,119.36,0,0,0,10.4-28.2c5.44-23.27,4.45-48.19-1.39-71.37a164.08,164.08,0,0,0-20.18-47.48c-3.18-5-5.31-8.81-8.15-9.57q.07,19.07.17,38.14C3175,71.25,3175.6,98.92,3174.59,126.49Z"/><path class="cls-2" d="M3174.27,189.76a3.44,3.44,0,0,1-4.07-2.91l-.22-1.65c-.91-6.75-1.47-12.7-1.71-18.2a280.83,280.83,0,0,1,.68-28.08c.24-4.14.49-8.43.64-12.62h0c.77-20.92.58-42.3.39-63-.05-6.55-.11-13.1-.14-19.64l-.18-40.19c0-2.26.53-4,2.71-3.37,0,0,26.92,12.78,35.48,61.23,4.51,25.51,6.82,50.62,1.41,73.73a124.84,124.84,0,0,1-10.84,29.38c-4.48,8.55-13.36,23.16-22.51,25Zm5.32-63.09c-.16,4.3-.41,8.63-.66,12.83-.52,8.91-1,18.12-.67,27.08v.08a3.42,3.42,0,0,0,6.27,1.76c1.63-2.5,3.33-5.37,5-8.6a114.38,114.38,0,0,0,10-27c5.05-21.56,4.57-45.42-1.37-69a159.32,159.32,0,0,0-17-41.78.77.77,0,0,0-1.44.4l.1,21.22q0,9.79.14,19.6c.19,20.79.38,42.29-.39,63.44Z"/><path class="cls-3" d="M3170.39,121.65c.39-13.78.33-27.58.26-41.38-.11-24.61-3.44-45.58-3.55-70.19-1.21.72.66-1.84-.91-.3-20.83,20.45-33.36,54-34.59,83.2a128.48,128.48,0,0,0,8.66,51.66c5.11,13.09,21.78,33.62,30.19,38.82a184.16,184.16,0,0,1-1.65-21.1C3168.59,148.77,3170,135.22,3170.39,121.65Z"/><path class="cls-2" d="M3175.91,189.43l-8.1-1.72c-9.08-5.62-26.67-27.05-32.21-41.26a133.64,133.64,0,0,1-9-53.68c1.35-32.4,15.52-66.37,36.08-86.56,1.13-1.11,3.47-3.62,5.11-5.39a1.11,1.11,0,0,1,1.93.69l4.79,78.61a363.06,363.06,0,0,1,.86,41.68h0c-.15,5.31-.46,10.67-.76,15.86-.46,8.09-.95,16.46-.82,24.62a183.1,183.1,0,0,0,1.6,20.54Zm-10.54-171.5c-16.49,18.83-27.61,47.61-28.77,75.25a123.65,123.65,0,0,0,8.32,49.64c3.24,8.32,11.78,20.22,19.26,28.35q-.32-4.54-.38-8.74c-.13-8.52.36-17.08.84-25.35.29-5.11.6-10.4.75-15.57.39-13.62.33-27.51.27-41Z"/><path class="cls-3" d="M3262.46,147.06c-9.68,7.62-19.92,14.62-29,23-4,3.68-7.73,7.58-11.36,11.59,5.55,4,21.51.8,27.44-.62a115.48,115.48,0,0,0,26.12-9.79c19.63-10.16,36.42-25.55,49-43.12a143.64,143.64,0,0,0,20.67-41.44c1.54-5.07,2.86-8.71,1.63-11l-26.52,22.66C3301.27,114.65,3282.34,131.43,3262.46,147.06Z"/><path class="cls-2" d="M3231.49,188.56c-6.46,0-10.16-1.37-12.28-2.89l-4.53-3.26,3.74-4.15c4.16-4.61,8-8.5,11.68-11.92,6.37-5.87,13.33-11.11,20.06-16.18,3.05-2.29,6.19-4.65,9.21-7h0c15.08-11.86,29.89-24.62,44.22-37q6.81-5.88,13.63-11.72l31.28-26.72,2.92,5.53c2.08,3.95.71,8.38-.87,13.51l-.41,1.33A148,148,0,0,1,3328.75,131c-13.67,19.1-31.23,34.54-50.76,44.65a120.78,120.78,0,0,1-27.26,10.21A84.25,84.25,0,0,1,3231.49,188.56ZM3265.55,151c-3.1,2.44-6.29,4.84-9.37,7.16-6.54,4.92-13.29,10-19.3,15.55-1.63,1.5-3.29,3.11-5,4.85a81.21,81.21,0,0,0,16.52-2.43,110.25,110.25,0,0,0,25-9.36c18.14-9.39,34.47-23.77,47.23-41.59a138.94,138.94,0,0,0,18.87-36.59l-15.78,13.48q-6.81,5.82-13.6,11.68c-14.41,12.42-29.3,25.26-44.56,37.25Z"/><path class="cls-3" d="M3263.23,141.42c9.88-7.88,19.47-16.09,29.07-24.29l51.36-43.87a21.85,21.85,0,0,0-4.88-.76c-27.18-1.7-58.33,9.82-79.52,26.3a115.74,115.74,0,0,0-30.72,36.28c-6,11.12-10,34.29-8.44,42.93a174,174,0,0,1,13.72-13.57C3243.19,156.27,3253.52,149.19,3263.23,141.42Z"/><path class="cls-2" d="M3217,188.83l-1.8-9.93c-1.75-9.65,2.28-33.79,9-46.2a121.44,121.44,0,0,1,32.05-37.85c23.5-18.28,56-29,82.9-27.34a26,26,0,0,1,6,1l8.75,2.65-58.57,50c-9.38,8-19.09,16.3-28.94,24.17h0c-3.8,3-7.74,6-11.54,8.87-5.94,4.48-12.09,9.11-17.7,14a166.48,166.48,0,0,0-13.32,13.17ZM3331.16,77.36c-23,.59-49.25,10.15-68.82,25.39a110.91,110.91,0,0,0-29.4,34.7c-3.54,6.57-6.46,18.51-7.64,28,1.77-1.7,3.51-3.29,5.24-4.8,5.88-5.13,12.17-9.87,18.25-14.45,3.75-2.83,7.63-5.75,11.32-8.7,9.72-7.77,19.36-16,28.69-24Z"/><path class="cls-4" d="M3048.23,302c14,1.06,15.64-20.65,1.65-21.71S3034.24,300.91,3048.23,302Z"/><path class="cls-4" d="M2962.6,456.94c14,1.06,15.64-20.64,1.65-21.7S2948.62,455.88,2962.6,456.94Z"/><path class="cls-4" d="M2989.28,383.36c14,1.06,15.63-20.64,1.64-21.7S2975.29,382.3,2989.28,383.36Z"/><path class="cls-4" d="M3074.88,417.51c14,1.06,15.63-20.64,1.65-21.71S3060.89,416.45,3074.88,417.51Z"/><path class="cls-4" d="M2886.13,414.1c14,1.06,15.63-20.64,1.64-21.71S2872.14,413,2886.13,414.1Z"/><path class="cls-1" d="M3882.7,213.41c-4.5-5.86-11.65-9.81-18.89-9.29-3.77.27-7.34,1.66-11,2.55-35.18,8.55-62.57-22.19-95-27-37.93-5.64-76,6.43-111.47,17.85-41.84,13.48-84.27,27.25-120.7,51.67s-66.74,61.32-73.19,105.07c-4.17,28.28-.09,62.07-21.65,80.5-6.27,5.36-14.59,9.19-17.68,16.89-5.15,12.83,8.39,26.55,22,29.48,18.48,4,37.66-2.13,55.54,5.71,62.82,27.51,115.64,40.93,180.19,10.89,42.45-19.76,92.36-42.63,127.34-73.59,49-43.36,50.66-82.45,56.4-134.85,3.23-29.45,50.79-38.06,29.76-73.46A24.25,24.25,0,0,0,3882.7,213.41Z"/><path class="cls-2" d="M3597.44,519.77a173.73,173.73,0,0,1-17.88-.94c-26.06-2.72-53.25-10.92-90.92-27.42-9.4-4.12-19.41-4-30-3.85-8,.12-16.28.22-24.58-1.56-10.13-2.17-19.64-9.14-24.22-17.74-3.28-6.17-3.75-12.56-1.37-18.49,2.76-6.86,8.6-11.07,13.76-14.78,1.9-1.37,3.7-2.66,5.32-4,14.7-12.57,16.22-33.49,17.83-55.64.52-7.23,1.07-14.7,2.11-21.79,6-40.88,33.5-80.43,75.36-108.49,37.27-25,80.32-38.86,121.94-52.28,34.8-11.21,74.23-23.92,113.75-18,13.67,2,26.32,8.32,38.56,14.39,18,9,35.1,17.44,54.54,12.72,1-.26,2.08-.56,3.19-.88a41.09,41.09,0,0,1,8.63-1.81c8.53-.62,17.43,3.7,23.22,11.24h0a30.59,30.59,0,0,1,2,2.89c14.49,24.39.29,38.43-12.24,50.82-8.09,8-15.73,15.55-16.84,25.74-.31,2.78-.6,5.53-.89,8.24-5.23,48.87-9.36,87.47-57.18,129.81-34.7,30.73-83,53.19-125.58,73l-3,1.38C3647.72,514,3622.87,519.77,3597.44,519.77ZM3464.3,477.51c9.37,0,18.93.61,28.35,4.74,65.11,28.52,114.79,39.45,176.07,10.93l3-1.38c42-19.52,89.56-41.65,123.17-71.41,44.92-39.77,48.67-74.85,53.86-123.4.29-2.71.59-5.47.89-8.26,1.51-13.72,11.2-23.3,19.75-31.76,13.53-13.37,20.69-21.75,10.68-38.6a18.38,18.38,0,0,0-1.3-1.91h0c-3.71-4.84-9.42-7.72-14.57-7.36a33,33,0,0,0-6.56,1.45c-1.17.33-2.37.68-3.61,1-23,5.59-42.49-4.1-61.35-13.47-12.07-6-23.48-11.66-35.58-13.46-37.21-5.53-75.46,6.8-109.21,17.67-41,13.2-83.33,26.86-119.45,51.07-39.51,26.49-65.4,63.54-71,101.64-1,6.73-1.53,14-2,21-1.69,23.23-3.43,47.24-21.31,62.52-1.93,1.65-4,3.13-6,4.56-4.44,3.2-8.64,6.22-10.32,10.39-1.26,3.15-.95,6.53.92,10.06,3.15,5.92,10.34,11.13,17.49,12.67s14.56,1.44,22.35,1.34C3460.42,477.54,3462.36,477.51,3464.3,477.51Z"/><path class="cls-3" d="M3856,126.49c-.49,13.42-1.89,26.84-1.32,40.3.25,5.93.87,11.85,1.67,17.74,7.32-1.45,16-16.59,19.06-22.39a119.33,119.33,0,0,0,10.39-28.2c5.45-23.27,4.45-48.19-1.38-71.37a164.38,164.38,0,0,0-20.19-47.48c-3.17-5-5.3-8.81-8.15-9.57q.09,19.07.17,38.14C3856.36,71.25,3857,98.92,3856,126.49Z"/><path class="cls-2" d="M3855.66,189.76a3.43,3.43,0,0,1-4.06-2.91l-.23-1.65c-.91-6.75-1.47-12.7-1.7-18.2a277.89,277.89,0,0,1,.67-28.08c.24-4.14.49-8.43.64-12.62h0c.77-20.92.58-42.3.4-63q-.09-9.82-.15-19.64l-.18-40.19c0-2.26.53-4,2.71-3.37,0,0,26.92,12.78,35.48,61.23,4.52,25.51,6.82,50.62,1.41,73.73a124.82,124.82,0,0,1-10.83,29.38c-4.48,8.55-13.36,23.16-22.52,25Zm5.32-63.09c-.16,4.3-.41,8.63-.65,12.83a268.67,268.67,0,0,0-.67,27.08v.08a3.42,3.42,0,0,0,6.27,1.76c1.64-2.5,3.33-5.37,5-8.6a114.8,114.8,0,0,0,9.95-27c5.05-21.56,4.58-45.42-1.36-69a159.68,159.68,0,0,0-17-41.78.77.77,0,0,0-1.43.4l.09,21.22q0,9.79.15,19.6c.18,20.79.37,42.29-.4,63.44Z"/><path class="cls-3" d="M3851.78,121.65c.4-13.78.33-27.58.27-41.38-.11-24.61-3.45-45.58-3.56-70.19-1.21.72.66-1.84-.9-.3-20.84,20.45-33.37,54-34.59,83.2a128.13,128.13,0,0,0,8.66,51.66c5.1,13.09,21.77,33.62,30.18,38.82a188.79,188.79,0,0,1-1.65-21.1C3850,148.77,3851.39,135.22,3851.78,121.65Z"/><path class="cls-2" d="M3857.3,189.43l-8.09-1.72c-9.09-5.62-26.67-27.05-32.21-41.26a133.83,133.83,0,0,1-9-53.68c1.36-32.4,15.52-66.37,36.09-86.56,1.12-1.11,3.46-3.62,5.1-5.39a1.11,1.11,0,0,1,1.93.69l4.8,78.61a367.65,367.65,0,0,1,.86,41.68h0c-.16,5.31-.46,10.67-.76,15.86-.47,8.09-.95,16.46-.83,24.62a181,181,0,0,0,1.61,20.54Zm-10.53-171.5c-16.5,18.83-27.62,47.61-28.78,75.25a123.66,123.66,0,0,0,8.33,49.64c3.24,8.32,11.77,20.22,19.25,28.35q-.32-4.54-.38-8.74c-.13-8.52.37-17.08.84-25.35.3-5.11.6-10.4.75-15.57.39-13.62.33-27.51.27-41Z"/><path class="cls-3" d="M3943.85,147.06c-9.68,7.62-19.92,14.62-29,23-4,3.68-7.73,7.58-11.35,11.59,5.54,4,21.5.8,27.43-.62a115.74,115.74,0,0,0,26.13-9.79c19.62-10.16,36.41-25.55,49-43.12a143.64,143.64,0,0,0,20.67-41.44c1.55-5.07,2.87-8.71,1.64-11l-26.53,22.66C3982.66,114.65,3963.73,131.43,3943.85,147.06Z"/><path class="cls-2" d="M3912.88,188.56c-6.46,0-10.16-1.37-12.27-2.89l-4.54-3.26,3.75-4.15c4.15-4.61,8-8.5,11.68-11.92,6.37-5.87,13.33-11.11,20.06-16.18,3-2.29,6.18-4.65,9.2-7h0c15.08-11.86,29.89-24.62,44.22-37q6.81-5.88,13.63-11.72l31.29-26.72,2.91,5.53c2.08,3.95.71,8.38-.87,13.51l-.41,1.33A147.77,147.77,0,0,1,4010.14,131c-13.67,19.1-31.22,34.54-50.76,44.65a120.43,120.43,0,0,1-27.26,10.21A84.25,84.25,0,0,1,3912.88,188.56ZM3946.94,151c-3.1,2.44-6.29,4.84-9.37,7.16-6.53,4.92-13.29,10-19.3,15.55-1.63,1.5-3.29,3.11-5,4.85a81.29,81.29,0,0,0,16.53-2.43,110.61,110.61,0,0,0,25-9.36c18.14-9.39,34.47-23.77,47.22-41.59a138.64,138.64,0,0,0,18.87-36.59l-15.77,13.48q-6.83,5.82-13.6,11.68C3977.1,126.16,3962.2,139,3946.94,151Z"/><path class="cls-3" d="M3944.63,141.42c9.87-7.88,19.47-16.09,29.07-24.29l51.36-43.87a22,22,0,0,0-4.89-.76c-27.18-1.7-58.33,9.82-79.51,26.3a115.61,115.61,0,0,0-30.72,36.28c-6,11.12-10,34.29-8.44,42.93a170.61,170.61,0,0,1,13.72-13.57C3924.58,156.27,3934.91,149.19,3944.63,141.42Z"/><path class="cls-2" d="M3898.38,188.83l-1.8-9.93c-1.76-9.65,2.27-33.79,9-46.2a121.34,121.34,0,0,1,32.06-37.85c23.5-18.28,56-29,82.89-27.34a26.2,26.2,0,0,1,6,1l8.75,2.65-58.58,50c-9.38,8-19.08,16.3-28.93,24.17h0c-3.81,3-7.74,6-11.55,8.87-5.94,4.48-12.08,9.11-17.7,14a166.48,166.48,0,0,0-13.31,13.17ZM4012.56,77.36c-23,.59-49.26,10.15-68.83,25.39a110.88,110.88,0,0,0-29.39,34.7c-3.54,6.57-6.47,18.51-7.64,28,1.77-1.7,3.51-3.29,5.23-4.8,5.88-5.13,12.17-9.87,18.25-14.45,3.75-2.83,7.63-5.75,11.33-8.7,9.72-7.77,19.36-16,28.68-24Z"/><path class="cls-4" d="M3729.63,302c14,1.06,15.63-20.65,1.64-21.71S3715.64,300.91,3729.63,302Z"/><path class="cls-4" d="M3644,456.94c14,1.06,15.64-20.64,1.65-21.7S3630,455.88,3644,456.94Z"/><path class="cls-4" d="M3670.67,383.36c14,1.06,15.64-20.64,1.65-21.7S3656.68,382.3,3670.67,383.36Z"/><path class="cls-4" d="M3756.27,417.51c14,1.06,15.64-20.64,1.65-21.71S3742.28,416.45,3756.27,417.51Z"/><path class="cls-4" d="M3567.52,414.1c14,1.06,15.64-20.64,1.65-21.71S3553.53,413,3567.52,414.1Z"/></g></g></svg>