<svg xmlns="http://www.w3.org/2000/svg" viewBox="0 0 288.78 351.12"><defs><style>.cls-1{isolation:isolate;}.cls-2{fill:#007435;}.cls-2,.cls-3,.cls-4{mix-blend-mode:multiply;}.cls-3{fill:#f0c700;}.cls-4{fill:#f8e12b;}</style></defs><g class="cls-1"><g id="Layer_2" data-name="Layer 2"><g id="Layer_7" data-name="Layer 7"><path class="cls-2" d="M181.16,253.81c0,.25-.09.51-.14.76a129.55,129.55,0,0,0-2.3,22c-.09,11.4,4.25,22.52,10.7,31.92s15,17.21,23.86,24.32a244.79,244.79,0,0,0,26.4,18.35A326.46,326.46,0,0,0,251,317.47c1.61-5.83,3.06-11.78,3.13-17.83.07-7.33-1.9-14.53-4.54-21.37-5.16-13.37-13.07-25.88-24.06-35.07a95.41,95.41,0,0,0-15.81-10.43c-7.33-4-15-5.8-23.19-7.3Q183.83,239.63,181.16,253.81Z"/><path class="cls-2" d="M255.65,308.07l-22.91-5.93c-5.51-1.42-11.11-2.68-16.56-4.35,1.38,3.52,2.8,7,4.25,10.53,4.68,1.37,9.38,2.7,14.09,3.94q3.71,1,7.41,1.89c2.53.63,6.29,2.29,8.83,1.46.67-.22-.09,5.12-1.52,5.59-2.24.73-4.58-.24-6.8-.78-2.89-.7-5.78-1.43-8.65-2.18q-5.17-1.35-10.32-2.81,7.51,17.4,16.17,34.28c.26.51-5,.31-5.69-1.08q-7-13.63-13.28-27.63-1.33,9.64-1.85,19.39c0,.75-5.88-.12-5.81-1.51a229.77,229.77,0,0,1,3.23-28.06q-2.3-5.42-4.47-10.88a130.18,130.18,0,0,0-7.14,25.21c-.16.94-6-.3-5.8-1.51a130.35,130.35,0,0,1,9.06-29.86c.15-.32.66-.41,1.32-.37q-3.12-8.1-6-16.29c-4.1,11.15-10.54,21.46-12.19,33.39-.13.88-6-.25-5.8-1.52,2-14.28,10.82-26.25,14.28-40.09.06-.22.36-.32.79-.35q-1.74-5.25-3.38-10.55l-6.81,12.79c-3,5.65-7.37,11.69-8.62,18-.19,1-6-.34-5.8-1.52,1.25-6.34,5.62-12.37,8.62-18l9.69-18.2a.86.86,0,0,1,.7-.36q-2.82-9.56-5.31-19.2c-.22-.88,5.36-.24,5.7,1.08q2.25,8.78,4.79,17.47l41.77,7.74c.76.14-.83,5.84-2.18,5.59l-37.7-7q1.92,6.31,4,12.57c6.68,2.21,13.66,3.6,20.5,5.22l23,5.47c.81.2-1,5.86-2.26,5.56l-23-5.47c-5.28-1.26-10.65-2.37-15.9-3.83q2.53,7.35,5.27,14.61c7,2.62,14.45,4.21,21.71,6.09L258,302.56C258.82,302.77,256.93,308.4,255.65,308.07Z"/><path class="cls-3" d="M108.07,58c-3.13-1.51-6.49.35-9.45,1.45-8.69,3.23-17.4,6.65-25.39,11.42-5.55,3.31-12.11,7.3-15.64,12.92-4.25,6.76,2.34,10.58,7.82,13.39,14,7.2,27.49,15.42,40.92,23.7,6,3.69,30.75,19.24,25.22.3q-5.16-17.7-10.33-35.4C118.7,77.15,117.3,62.49,108.07,58Z"/><path class="cls-3" d="M192.24,65c-6.19-6.38-14.18-10.41-22.68-12.74-9.5-2.61-36.1-9.74-35.57,7.39q.52,17.13,1.07,34.27.3,9.23.58,18.45c.15,4.78-1.6,14.55,5.86,14.71,10.3.22,26.37-15.67,34.14-21.68s16.81-12.42,23.22-20C204.77,78.44,197.37,70.26,192.24,65Z"/><path class="cls-3" d="M241.07,108.68a34.33,34.33,0,0,0-2.7-5.64c-5.68-9.48-14.9-8-24.18-4.43a66.76,66.76,0,0,0-10,5.14c-15.67,9.33-31.43,18.74-47.76,27-1.06.54-2.23,1.21-2.51,2.37-.42,1.77,1.48,3.16,3.1,4,17.35,8.88,36.65,13.75,55.57,19,7.67,2.14,17.16,7.1,24.94,2.75,8.06-4.51,6.51-14.24,6.63-22.06C244.33,127.57,244.36,117.52,241.07,108.68Z"/><path class="cls-3" d="M211.57,174.37c-10.71-5.15-21.15-10.65-31.86-15.88-8.49-4.13-18.51-11.38-27.76-13.32-12.28-2.58-4.8,29.3-3.79,35.91,1.72,11.17,2,22.36,4.8,33.39,1.38,5.51,2.48,12,5,17.1,1.65,3.42,3.18,3.68,6.75,2.87,10.28-2.32,20.74-7.43,29.77-12.76a82.07,82.07,0,0,0,27.36-26.26c4.52-7,5.18-13.92-3.19-17.75Q215.07,176.05,211.57,174.37Z"/><path class="cls-3" d="M133.6,151.66c-8.79-5.21-24,18-29.47,23.6-6.13,6.26-40.43,38-23.48,44.2l36.06,13.2c7,2.54,14.26,5.13,21.61,4.17,9.66-1.26,6.09-9.6,7.88-15.54L141.58,176c-.69-6.75-1.78-13.62-4.47-19.85A9.28,9.28,0,0,0,133.6,151.66Z"/><path class="cls-3" d="M123.38,138c-5.93-4.88-25.57-9.34-30.63-11.28q-17.91-6.85-35.95-13.3c-6.57-2.33-14-.82-18.2,5.44-4.34,6.48-3.38,17.76-2.24,25.08,1.49,9.63,5,18.83,9.08,27.65,1.84,4,3.59,8.6,6,12.33,8.25,12.7,31.58-5.1,39.08-10.43,6-4.28,37.84-24.58,34.4-33.57A4.9,4.9,0,0,0,123.38,138Z"/><path class="cls-4" d="M157.33,123c-7.61-10.44-20.1-8.14-28.28-.3-8.36,5.88-13.08,15.89-8.54,26.32,5.41,12.41,19.57,12.87,29.63,6.24C161.07,148.08,165.54,134.27,157.33,123Zm-6.07,10.33c2.39,6,2.63,19.47-6,20.62-6.46.86-12.87-4.07-15.56-9.58a20,20,0,0,1-1.93-10.5c.17-2,1-7,2.8-9a14.63,14.63,0,0,0,2-1.17,14.89,14.89,0,0,0,4-2.51,33.19,33.19,0,0,1,4.44,1.1,15.78,15.78,0,0,1,5.35,3.51A21.58,21.58,0,0,1,151.26,133.34Z"/><path class="cls-4" d="M141.47,16.72c-16.13,2-31.55,7.89-46.15,14.85s-29,15-41.93,24.94c-17.73,13.65-33,32.19-38.28,53.85a3.11,3.11,0,0,0-1.3,1.81c-.32,3.54-.5,7.09-.56,10.65a68.27,68.27,0,0,0,0,7.3.32.32,0,0,0,.1.19C14.82,176.81,38,222.49,76.76,249c22.41,15.34,48.16,21.81,74.83,15.32,24.69-6,48-19.11,66.85-36.11,38.67-35,55.84-89.56,37.81-139.48C239.5,42.35,191,10.48,141.47,16.72ZM242.7,82.84C263.84,126.16,256,179,225.5,215.77a129,129,0,0,1-63.88,41.9c-25.62,7.25-50.9,2.19-73.09-12.1-42.18-27.17-67.12-77.13-66.47-126.9C23.19,96.36,35.3,76,52,61.37c11.16-9.81,24.15-17.3,37.42-23.87,13.07-6.48,26.78-12,41.23-14.42C176.11,15.53,222.75,42,242.7,82.84Z"/><path class="cls-4" d="M263.6,61.86c-31.12-43.38-85.9-69.21-139.19-60-51.8,9-99.66,46.83-118.63,96.07A135.88,135.88,0,0,0,0,117.29c-.07.35,1.33.07,3-.57-3.92,23.92,2.83,48.56,13.69,70.09C31,215.08,52.35,241.32,80,257.31c54.57,31.57,122.55,12.82,165.14-30,21.92-22.05,40.6-52.57,43.3-84.13C290.89,114.46,280.17,85,263.6,61.86Zm14.5,59.39c5.82,31.63-4.88,61.85-22.93,87.71s-43.78,46.13-74.61,54.26c-27,7.12-56.58,5.29-82.08-6.34-30.68-14-54.22-41-70.18-70.13C14,160.61,5.21,129.55,14.69,100.28c.31-1-1.22-.54-2.46-.07,14.6-44.77,52.61-80.93,99-91.31,49.41-11.07,101.12,9.21,134.21,46.58C261.86,74.05,273.59,96.78,278.1,121.25Z"/><path class="cls-2" d="M159.28,235.47l-.73.26a129.92,129.92,0,0,0-20.17,9c-9.92,5.62-17.39,14.94-22.31,25.22s-7.44,21.56-9.14,32.83a245.37,245.37,0,0,0-2.7,32,329.51,329.51,0,0,0,34.78-7c5.86-1.53,11.74-3.24,17-6.21,6.38-3.59,11.64-8.9,16.24-14.6,9-11.15,15.89-24.26,18.36-38.37a95,95,0,0,0,1.13-18.91c-.22-8.33-2.47-15.89-5.26-23.73Z"/><path class="cls-2" d="M149.5,327.11q-3.17-11.42-6.32-22.81c-1.51-5.48-3.22-11-4.5-16.51q-3.54,4.44-7,8.94c1.15,4.74,2.35,9.47,3.63,14.17q1,3.69,2.07,7.37c.72,2.5,1.16,6.59,3.15,8.37.52.47-4.49,2.48-5.61,1.48-1.75-1.58-2.08-4.09-2.72-6.28-.84-2.85-1.65-5.72-2.44-8.58q-1.41-5.16-2.72-10.34-11.31,15.19-21.61,31.13c-.31.49-2.76-4.15-1.91-5.47q8.3-12.9,17.3-25.31-9,3.66-17.73,8.09c-.66.34-2.82-5.15-1.58-5.79a230.19,230.19,0,0,1,25.91-11.22q3.55-4.69,7.19-9.31a129.74,129.74,0,0,0-25.4,6.42c-.9.32-2.74-5.36-1.59-5.78A130.12,130.12,0,0,1,138,278.6c.35,0,.69.36,1,1q5.44-6.75,11.12-13.32c-11.7,2-23.85,1.6-35,6.12-.83.34-2.77-5.3-1.58-5.78,13.35-5.42,28.14-3.74,41.86-7.66.22-.06.46.15.69.51q3.69-4.14,7.45-8.2l-14.48.5c-6.39.21-13.81-.55-19.92,1.53-.93.32-2.72-5.39-1.58-5.78,6.11-2.08,13.52-1.32,19.92-1.54l20.6-.7a.88.88,0,0,1,.67.43q6.86-7.21,14-14.19c.65-.64,2.88,4.52,1.91,5.47q-6.48,6.33-12.74,12.88,7.09,20,14.17,40c.26.73-5.47,2.2-5.93.9l-12.78-36.14q-4.52,4.82-8.9,9.74c1.43,6.9,3.72,13.63,5.73,20.36q3.38,11.34,6.76,22.68c.24.8-5.56,2.09-5.94.82q-3.37-11.34-6.76-22.68c-1.55-5.2-3.27-10.4-4.64-15.68q-5.09,5.87-10,11.87c1.24,7.4,3.57,14.62,5.57,21.85q3.15,11.4,6.31,22.8C155.68,327.21,149.85,328.39,149.5,327.11Z"/></g></g></g></svg>